PathFileType	4	(X/Y/Z)
DataRate	CameraRate	NumFrames	NumMarkers	Units	OrigDataRate	OrigDataStartFrame	OrigNumFrames	
  120.0	  120.0	    6	     56	     mm	  120.0	      345	    551
Frame#	Time	LASI			RASI			LPSI			RPSI			RTH1			RTH2			RTH3			RLFC			RMFC			LTH1			LTH2			LTH3			LLFC			LMFC			RTB1			RTB2			RTB3			RLMAL			RMMAL			LTB1			LTB2			LTB3			LMMAL			LLMAL			RCAL			RTOE			RMT5			LCAL			LTOE			LMT5			LACR			RACR			CLAV			C7			LASH			LPSH			RASH			RPSH			RUA1			RUA2			RUA3			RLEL			RMEL			LUA1			LUA2			LUA3			LLEL			LMEL			RFAsuperior			RFAradius			RFAulna			LFAsuperior			LFAradius			LFAulna			RHJC			LHJC			
		X1	Y1	Z1	X2	Y2	Z2	X3	Y3	Z3	X4	Y4	Z4	X5	Y5	Z5	X6	Y6	Z6	X7	Y7	Z7	X8	Y8	Z8	X9	Y9	Z9	X10	Y10	Z10	X11	Y11	Z11	X12	Y12	Z12	X13	Y13	Z13	X14	Y14	Z14	X15	Y15	Z15	X16	Y16	Z16	X17	Y17	Z17	X18	Y18	Z18	X19	Y19	Z19	X20	Y20	Z20	X21	Y21	Z21	X22	Y22	Z22	X23	Y23	Z23	X24	Y24	Z24	X25	Y25	Z25	X26	Y26	Z26	X27	Y27	Z27	X28	Y28	Z28	X29	Y29	Z29	X30	Y30	Z30	X31	Y31	Z31	X32	Y32	Z32	X33	Y33	Z33	X34	Y34	Z34	X35	Y35	Z35	X36	Y36	Z36	X37	Y37	Z37	X38	Y38	Z38	X39	Y39	Z39	X40	Y40	Z40	X41	Y41	Z41	X42	Y42	Z42	X43	Y43	Z43	X44	Y44	Z44	X45	Y45	Z45	X46	Y46	Z46	X47	Y47	Z47	X48	Y48	Z48	X49	Y49	Z49	X50	Y50	Z50	X51	Y51	Z51	X52	Y52	Z52	X53	Y53	Z53	X54	Y54	Z54	X55	Y55	Z55	X56	Y56	Z56	

345	2.87500	571.46023	1026.31131	-696.73726	700.51681	1024.60745	-482.07240	467.04201	1046.61277	-536.77176	512.98264	1046.53742	-463.29008	679.15721	849.30882	-408.78225	701.19652	723.85280	-445.31493	623.69009	612.62862	-373.67828	634.94424	530.75359	-374.97916	549.66507	500.43744	-453.73816	496.72026	882.69479	-714.26231	531.67584	766.02670	-730.42809	449.27500	637.94023	-682.81924	437.93770	531.25665	-682.98512	508.36324	520.17640	-583.47400	633.65966	399.77119	-429.70681	636.38200	343.52121	-356.84986	610.45496	223.30050	-409.76881	590.55854	132.32624	-333.91330	567.51053	124.23274	-416.62505	496.39851	395.11322	-660.62915	422.71738	299.51419	-689.90657	469.31383	207.59721	-641.62910	465.43187	120.38707	-606.75846	392.51172	125.60947	-655.12256	514.30011	100.79591	-330.10881	689.26093	74.73641	-460.13373	717.20258	62.46432	-366.26211	362.25537	98.21493	-586.68192	543.97321	80.05848	-707.89100	471.14788	60.43467	-764.92140	442.41476	1470.36554	-675.17508	632.78282	1467.11425	-353.08490	640.55145	1454.88155	-547.75820	514.55377	1530.05864	-500.54285	522.02292	1443.53439	-681.97109	409.47326	1441.09216	-616.52566	684.29881	1443.56931	-403.68991	578.85717	1432.88123	-343.31622	683.22042	1371.35655	-287.54527	731.91921	1320.34533	-300.17572	685.95294	1274.47972	-220.12491	768.42671	1233.49852	-195.54114	718.79852	1170.45216	-234.92890	396.42992	1400.85190	-722.57673	372.12841	1312.27176	-708.53587	382.74801	1320.80667	-785.19450	356.30915	1233.99483	-854.99329	378.29888	1166.17795	-803.45099	835.81484	1240.75544	-244.44285	941.26304	1209.21405	-373.10161	967.76884	1181.47159	-318.98872	413.71994	1251.13407	-891.05108	585.24276	1230.93053	-941.73226	554.24843	1207.71042	-992.13596	631.16295	953.08689	-482.53841	540.60440	976.57193	-635.73548	
346	2.88333	571.24913	1026.34962	-696.66172	700.38053	1024.62975	-482.05064	466.97133	1046.63677	-536.77379	512.94064	1046.52996	-463.31310	679.14591	849.33861	-408.82642	701.14217	723.87701	-445.38613	623.69511	612.64124	-373.69809	634.94007	530.76141	-375.04377	549.52525	500.46960	-453.70605	496.52390	882.72591	-714.21655	531.47318	766.05247	-730.36877	449.09094	637.95711	-682.74659	437.76710	531.28955	-682.91481	508.33153	520.19038	-583.49499	633.51227	399.82031	-429.70731	636.39281	343.52144	-356.89914	610.33410	223.31148	-409.69356	590.72038	132.38334	-333.83823	567.41223	124.25816	-416.60585	496.18840	395.04279	-660.35667	422.59144	299.52683	-689.85136	469.23415	207.62695	-641.58014	464.97370	120.57296	-606.77283	392.44167	125.63495	-655.08858	514.23958	100.82397	-330.13820	689.20393	74.77775	-460.14182	717.15447	62.48810	-366.27103	362.27794	98.20426	-586.71269	543.92456	80.07019	-707.76987	471.08890	60.45530	-764.87154	442.29785	1470.41164	-675.09960	632.73327	1467.10988	-353.03148	640.46042	1454.90493	-547.69997	514.43315	1530.08512	-500.48548	521.83844	1443.57689	-681.76090	409.34226	1441.15015	-616.44745	684.19179	1443.59239	-403.65185	578.80275	1432.86737	-343.27091	683.19619	1371.35743	-287.46766	731.82003	1320.34473	-300.17038	685.89873	1274.44901	-220.10824	768.37293	1233.45828	-195.53838	718.68552	1170.42979	-234.90837	396.30214	1400.89756	-722.49092	371.81863	1312.30660	-708.41254	382.57889	1320.84807	-785.07207	356.14253	1234.03278	-854.87534	378.33783	1166.21496	-803.37742	835.71103	1240.75139	-244.43116	941.20023	1209.24571	-373.07522	967.72757	1181.47762	-318.98462	413.54045	1251.18122	-890.90072	585.10135	1230.99574	-941.68692	554.06575	1207.75402	-991.97277	631.03354	953.10738	-482.51522	540.46675	976.59698	-635.70720	
347	2.89167	570.93388	1026.41762	-696.53881	700.18291	1024.66583	-482.01865	466.91934	1046.65055	-536.76497	512.91737	1046.52895	-463.31035	679.16791	849.37347	-408.80869	701.05553	723.89959	-445.42113	623.71756	612.65723	-373.67747	634.96152	530.79667	-375.02555	549.29041	500.56096	-453.62537	496.20726	882.79784	-714.11128	531.15551	766.10288	-730.25134	448.79017	638.01336	-682.62500	437.47096	531.36561	-682.83605	508.30403	520.20809	-583.49947	633.24540	399.90078	-429.67129	636.42990	343.54230	-356.87477	610.08860	223.32419	-409.52441	590.96907	132.48793	-333.67843	567.21446	124.31528	-416.55303	495.79266	394.89837	-659.80718	422.38028	299.57414	-689.74744	469.06212	207.63939	-641.40766	464.13140	120.89893	-606.71572	392.28582	125.69279	-655.00951	514.11447	100.87225	-330.15210	689.05579	74.82437	-460.10882	717.05866	62.51623	-366.25239	362.30944	98.19373	-586.73221	543.82923	80.09082	-707.56812	470.95572	60.52767	-764.76445	442.12101	1470.49204	-674.98754	632.69951	1467.10154	-352.96177	640.32877	1454.94206	-547.60578	514.26536	1530.13168	-500.40394	521.51229	1443.66086	-681.37626	409.13623	1441.24151	-616.34085	684.04712	1443.62448	-403.58321	578.76129	1432.85551	-343.21538	683.18392	1371.35305	-287.39057	731.68943	1320.35260	-300.13455	685.85623	1274.41082	-220.07377	768.34027	1233.41594	-195.51210	718.52370	1170.43697	-234.88744	396.08858	1400.98203	-722.35527	371.26482	1312.39151	-708.19513	382.30160	1320.93536	-784.89159	355.85150	1234.11111	-854.67639	378.41273	1166.29962	-803.26830	835.56873	1240.77062	-244.39792	941.07362	1209.27028	-373.01965	967.69422	1181.48058	-318.93182	413.24326	1251.27424	-890.67442	584.86325	1231.08616	-941.61008	553.75328	1207.83178	-991.69156	630.87646	953.13564	-482.48517	540.26260	976.64186	-635.64716	
348	2.90000	570.56022	1026.50004	-696.39004	699.95362	1024.70411	-481.98985	466.89515	1046.62360	-536.75158	512.89149	1046.52765	-463.27883	679.21228	849.41066	-408.70574	700.94091	723.91684	-445.40055	623.73524	612.66023	-373.66471	635.01519	530.85482	-374.90301	548.97934	500.67151	-453.51525	495.80605	882.88843	-713.95756	530.75845	766.16490	-730.09021	448.40942	638.08721	-682.46820	437.09415	531.47438	-682.79440	508.26692	520.21703	-583.48377	632.91689	399.98791	-429.60783	636.48786	343.58688	-356.76016	609.75192	223.33346	-409.30212	591.17690	132.60770	-333.48791	566.93529	124.38788	-416.46848	495.26645	394.69937	-659.07991	422.08673	299.63406	-689.60795	468.80989	207.62245	-641.14314	463.08073	121.29374	-606.53301	392.03568	125.75958	-654.88485	513.94956	100.92017	-330.14340	688.83682	74.85581	-460.03690	716.93084	62.52559	-366.21980	362.33868	98.18351	-586.72786	543.70449	80.10974	-707.40170	470.73199	60.63039	-764.61469	441.90653	1470.58565	-674.84873	632.67193	1467.07174	-352.88266	640.17176	1454.98113	-547.48005	514.08545	1530.17673	-500.29559	521.08475	1443.77860	-680.87653	408.87810	1441.33507	-616.21869	683.88074	1443.64996	-403.48005	578.72331	1432.82975	-343.15316	683.16894	1371.32586	-287.32248	731.53862	1320.35830	-300.05907	685.82102	1274.35744	-220.01952	768.32286	1233.36034	-195.45758	718.32870	1170.45750	-234.86373	395.80752	1401.08773	-722.18035	370.53623	1312.50419	-707.89948	381.94868	1321.04693	-784.67036	355.47533	1234.21627	-854.42044	378.40551	1166.41396	-803.09826	835.40779	1240.79503	-244.33808	940.88664	1209.28132	-372.91956	967.66809	1181.47754	-318.80536	412.87169	1251.38518	-890.40332	584.56288	1231.17087	-941.49954	553.34808	1207.92571	-991.32421	630.71556	953.15747	-482.45992	540.02241	976.69027	-635.57122	
349	2.90833	570.17615	1026.57978	-696.23740	699.72513	1024.73821	-481.97449	466.90090	1046.54697	-536.74965	512.83642	1046.52302	-463.23369	679.24604	849.44325	-408.57099	700.80704	723.93419	-445.34388	623.72482	612.64204	-373.71185	635.07916	530.91494	-374.73801	548.62198	500.76076	-453.39596	495.37231	882.97206	-713.77858	530.32927	766.22278	-729.90814	447.99869	638.15241	-682.28974	436.69420	531.59548	-682.81069	508.21022	520.21167	-583.45405	632.59298	400.05775	-429.54071	636.54058	343.63631	-356.61384	609.37681	223.33359	-409.07247	591.24947	132.71009	-333.32876	566.60803	124.46081	-416.36152	494.69148	394.47767	-658.30547	421.73113	299.68052	-689.44712	468.51442	207.59068	-640.86169	462.00619	121.68743	-606.20138	391.71585	125.81102	-654.73063	513.77426	100.94964	-330.12232	688.58853	74.86459	-459.95731	716.79572	62.50588	-366.20236	362.34884	98.16911	-586.70733	543.58641	80.11613	-707.38152	470.43916	60.72758	-764.45074	441.68116	1470.67353	-674.70521	632.63606	1467.01133	-352.81418	640.00795	1455.01751	-547.34923	513.92894	1530.20539	-500.17872	520.61618	1443.91640	-680.34521	408.59700	1441.41321	-616.10025	683.70817	1443.66557	-403.36620	578.67669	1432.78359	-343.09594	683.14396	1371.27683	-287.26538	731.38142	1320.35644	-299.96710	685.78123	1274.29140	-219.95938	768.30522	1233.28992	-195.39211	718.11981	1170.46938	-234.83644	395.49647	1401.19670	-721.99395	369.73022	1312.62584	-707.56824	381.56584	1321.15778	-784.43253	355.07152	1234.32815	-854.14698	378.24726	1166.52892	-802.86430	835.24618	1240.81248	-244.26961	940.66177	1209.28844	-372.78577	967.63978	1181.46651	-318.64468	412.47769	1251.48495	-890.12359	584.24627	1231.23266	-941.37802	552.90863	1208.01399	-990.92793	630.56410	953.16761	-482.44527	539.78188	976.72776	-635.49993	
350	2.91667	569.82279	1026.64741	-696.10039	699.52254	1024.76733	-481.97460	466.92377	1046.44467	-536.76561	512.74240	1046.51664	-463.19494	679.23733	849.46424	-408.48207	700.66821	723.95988	-445.28622	623.68374	612.61046	-373.81411	635.12125	530.95553	-374.61910	548.26586	500.81112	-453.28890	494.96396	883.03381	-713.60312	529.91944	766.26752	-729.73553	447.61158	638.19474	-682.10740	436.32964	531.70820	-682.87126	508.13785	520.19684	-583.42151	632.33114	400.09783	-429.49861	636.56327	343.66807	-356.51467	609.02569	223.32329	-408.87549	591.17650	132.77630	-333.23836	566.28136	124.52636	-416.25108	494.15411	394.27163	-657.60664	421.36241	299.70456	-689.28463	468.22823	207.56944	-640.64067	461.04964	122.03238	-605.78485	391.38738	125.84204	-654.58070	513.61837	100.95557	-330.10568	688.36118	74.85822	-459.90484	716.68198	62.46538	-366.22143	362.33512	98.15054	-586.68609	543.51284	80.10684	-707.54750	470.14135	60.79278	-764.30796	441.47144	1470.74744	-674.57953	632.58353	1466.92912	-352.76918	639.85385	1455.05155	-547.24237	513.81947	1530.21620	-500.07727	520.17228	1444.05585	-679.86320	408.32623	1441.47883	-615.99967	683.54430	1443.67530	-403.27101	578.61668	1432.72562	-343.05147	683.10992	1371.22142	-287.21637	731.23361	1320.34517	-299.89126	685.72791	1274.22302	-219.90996	768.27401	1233.21517	-195.33759	717.92044	1170.46004	-234.80686	395.20182	1401.29895	-721.82867	368.95482	1312.74870	-707.25756	381.20307	1321.25448	-784.20761	354.70090	1234.42965	-853.89880	377.96189	1166.62369	-802.59797	835.09600	1240.81979	-244.21391	940.43289	1209.30319	-372.64693	967.59918	1181.44756	-318.51188	412.10771	1251.56077	-889.86730	583.95886	1231.27136	-941.27622	552.49865	1208.08200	-990.56381	630.42575	953.17071	-482.44051	539.56774	976.75153	-635.44744	
